#!OML:ASF I:\Actors\actors\Patient Classification 1\Patient 1\Session 1\Subject1.ASF
:FULLY-SPECIFIED
:DEGREES
695
root -0.00581507 17.5522 9.25877 12.59 1.44173 -10.6339
lowerback 5.85409 1.56134 6.30371
upperback -6.17673 2.85577 0.958222
thorax -9.63205 0.988139 -2.90353
lowerneck -18.2748 -3.86976 -1.17575
upperneck 21.6484 -7.36975 8.9822
head 10.3742 -2.42621 2.32251
rclavicle 1.78906e-015 1.74931e-014
rhumerus 49.1923 31.6682 -29.6878
rradius 75.6712
rwrist 1.92256
rhand 36.4647 -67.7467
rfingers 7.12502
rthumb 59.4057 -442.136
lclavicle 1.78906e-015 1.74931e-014
lhumerus 16.0511 -32.6363 77.368
lradius 57.2703
lwrist 34.7685
lhand -51.0022 -13.4046
lfingers 7.12502
lthumb -23.5507 15.1735
rfemur -12.4103 17.4511 28.6982
rtibia 9.29652
rfoot -11.7496 -20.1058
rtoes 2.77426
lfemur -2.13359 -44.4617 -2.3229
ltibia -3.51425
lfoot -21.7741 51.9836
ltoes 7.0455
696
root -0.00430085 17.5535 9.26035 12.6587 0.988997 -10.6419
lowerback 5.80355 1.64406 6.34372
upperback -6.21128 2.96829 0.952419
thorax -9.62783 1.03931 -2.94527
lowerneck -18.2592 -3.74888 -1.08043
upperneck 21.8919 -7.21677 8.84694
head 10.4403 -2.35576 2.2844
rclavicle 5.46658e-015 -2.38542e-015
rhumerus 50.8309 33.0003 -29.2491
rradius 72.937
rwrist 2.16708
rhand 36.818 -67.4092
rfingers 7.12502
rthumb 59.7092 -441.491
lclavicle 5.46658e-015 -2.38542e-015
lhumerus 15.735 -32.5466 77.4476
lradius 57.3193
lwrist 34.7095
lhand -50.8967 -13.1827
lfingers 7.12502
lthumb -23.4495 15.4083
rfemur -12.5173 17.6769 28.6331
rtibia 9.36512
rfoot -11.7396 -19.8161
rtoes 3.12146
lfemur -1.88485 -44.4987 -2.51771
ltibia -3.58184
lfoot -22.6252 52.3056
ltoes 7.87641
697
root -0.00221062 17.5537 9.26439 12.7299 0.493585 -10.5531
lowerback 5.69016 1.74554 6.30518
upperback -6.23234 3.08801 0.901178
thorax -9.57039 1.09996 -2.98953
lowerneck -18.2458 -3.61158 -0.814033
upperneck 22.154 -7.02254 8.44779
head 10.4934 -2.28282 2.12942
rclavicle 2.9271e-014 1.59028e-014
rhumerus 52.6237 34.3879 -28.2735
rradius 70.0283
rwrist 2.80528
rhand 37.3209 -67.1901
rfingers 7.12502
rthumb 60.1396 -440.823
lclavicle 2.9271e-014 1.59028e-014
lhumerus 15.4463 -32.5051 77.5203
lradius 57.345
lwrist 34.8104
lhand -50.8955 -12.8337
lfingers 7.12502
lthumb -23.4484 15.7575
rfemur -12.6059 17.805 28.4705
rtibia 9.42304
rfoot -11.6605 -19.4954
rtoes 3.05398
lfemur -1.60626 -44.5624 -2.87676
ltibia -3.61561
lfoot -23.5357 52.6621
ltoes 8.59184
698
root 0.00153051 17.5509 9.27116 12.7874 -0.0222829 -10.3801
lowerback 5.57336 1.87177 6.19492
upperback -6.23748 3.22812 0.795087
thorax -9.49073 1.17451 -3.05396
lowerneck -18.3145 -3.50858 -0.579387
upperneck 22.423 -6.8973 8.15649
head 10.5765 -2.2288 2.00691
rclavicle -2.50469e-014 5.56597e-015
rhumerus 54.2558 35.6252 -27.183
rradius 67.4556
rwrist 3.80039
rhand 38.3527 -67.3864
rfingers 7.12502
rthumb 61.0162 -440.054
lclavicle -2.50469e-014 5.56597e-015
lhumerus 15.2022 -32.5676 77.5663
lradius 57.3614
lwrist 35.0783
lhand -51.0325 -12.4482
lfingers 7.12502
lthumb -23.5798 16.1261
rfemur -12.6478 17.8083 28.2373
rtibia 9.46126
rfoot -11.5263 -19.1166
rtoes 2.39173
lfemur -1.22458 -44.8066 -3.44197
ltibia -3.64072
lfoot -24.4652 53.1709
ltoes 9.26712
699
root 0.00429562 17.5482 9.27535 12.8532 -0.505064 -10.236
lowerback 5.49122 1.99193 6.0689
upperback -6.23532 3.36122 0.688042
thorax -9.42503 1.24633 -3.11058
lowerneck -18.3641 -3.45321 -0.555287
upperneck 22.5539 -6.86693 8.25558
head 10.6367 -2.19476 2.04404
rclavicle 1.94312e-014 4.13472e-014
rhumerus 55.6344 36.6275 -26.095
rradius 65.6469
rwrist 5.0241
rhand 39.8982 -68.0542
rfingers 7.12502
rthumb 62.3107 -439.156
lclavicle 1.94312e-014 4.13472e-014
lhumerus 15.0646 -32.7516 77.4866
lradius 57.3755
lwrist 35.3827
lhand -51.0488 -12.0628
lfingers 7.12502
lthumb -23.5954 16.5096
rfemur -12.7302 17.836 28.0319
rtibia 9.52402
rfoot -11.4292 -18.7709
rtoes 1.82992
lfemur -0.966458 -44.8267 -3.88452
ltibia -3.6244
lfoot -25.0895 53.4783
ltoes 9.81574
700
root 0.0031233 17.5473 9.27774 12.9308 -0.898152 -10.1577
lowerback 5.40988 2.08776 5.92002
upperback -6.22787 3.4617 0.607148
thorax -9.35993 1.30504 -3.12203
lowerneck -18.3573 -3.42696 -0.546317
upperneck 22.5547 -6.88148 8.43687
head 10.6452 -2.17888 2.10567
rclavicle 3.33461e-014 -1.90833e-014
rhumerus 56.2721 37.2083 -25.716
rradius 65.0336
rwrist 5.53874
rhand 40.9878 -68.4617
rfingers 7.12502
rthumb 63.2088 -438.364
lclavicle 3.33461e-014 -1.90833e-014
lhumerus 15.0425 -32.9905 77.2894
lradius 57.3655
lwrist 35.5224
lhand -50.8532 -12.2234
lfingers 7.12502
lthumb -23.4078 16.373
rfemur -12.8535 17.9303 27.9077
rtibia 9.62497
rfoot -11.3773 -18.5405
rtoes 1.44042
lfemur -0.842829 -44.6966 -4.11586
ltibia -3.59128
lfoot -25.6743 53.5478
ltoes 10.3851
701
root 0.0050967 17.5431 9.2803 12.8965 -1.01116 -10.5299
lowerback 5.44642 2.09461 6.28535
upperback -6.19012 3.51364 0.674158
thorax -9.32293 1.30972 -3.26098
lowerneck -18.403 -3.41073 -0.486727
upperneck 22.6489 -6.90864 8.51535
head 10.6924 -2.17189 2.12063
rclavicle -1.86858e-014 2.3059e-014
rhumerus 56.0723 37.4328 -26.1492
rradius 65.545
rwrist 5.66499
rhand 40.9906 -68.2487
rfingers 7.12502
rthumb 63.2111 -438.148
lclavicle -1.86858e-014 2.3059e-014
lhumerus 15.0447 -33.1994 77.0757
lradius 57.3439
lwrist 35.4634
lhand -50.7119 -13.0509
lfingers 7.12502
lthumb -23.2722 15.5627
rfemur -12.7866 17.8285 28.3958
rtibia 9.69284
rfoot -11.3634 -18.2811
rtoes 1.06792
lfemur -0.588822 -44.5185 -3.85574
ltibia -3.68192
lfoot -25.7629 53.4911
ltoes 10.4827
702
root 0.0133469 17.5366 9.28272 12.7539 -0.784506 -11.2611
lowerback 5.64004 1.99348 7.13154
upperback -6.15449 3.49389 0.872295
thorax -9.37754 1.24759 -3.52647
lowerneck -18.4743 -3.3984 -0.50629
upperneck 22.8613 -6.93067 8.59493
head 10.7903 -2.16413 2.15149
rclavicle 2.12203e-014 -1.98785e-014
rhumerus 55.2428 37.3724 -27.0302
rradius 67.0998
rwrist 5.0709
rhand 40.1351 -67.6256
rfingers 7.12502
rthumb 62.5071 -438.473
lclavicle 2.12203e-014 -1.98785e-014
lhumerus 14.9802 -33.3607 76.9409
lradius 57.3494
lwrist 35.2726
lhand -50.5482 -13.4839
lfingers 7.12502
lthumb -23.1152 15.1494
rfemur -12.5124 17.5069 29.3623
rtibia 9.6292
rfoot -11.3627 -18.055
rtoes 0.884274
lfemur -0.33189 -44.2224 -3.14443
ltibia -3.84652
lfoot -25.0281 53.2881
ltoes 9.82778
703
root 0.0178842 17.5352 9.28855 12.6723 -0.43669 -11.6028
lowerback 5.781 1.85961 7.4585
upperback -6.17776 3.37602 1.03641
thorax -9.49838 1.16821 -3.52561
lowerneck -18.5601 -3.38603 -0.467701
upperneck 23.133 -6.91466 8.44793
head 10.8981 -2.15894 2.09711
rclavicle -1.635e-014 -1.98785e-014
rhumerus 54.0922 37.1597 -27.9506
rradius 69.1228
rwrist 4.86665
rhand 39.7513 -67.4504
rfingers 7.12502
rthumb 62.1887 -438.707
lclavicle -1.635e-014 -1.98785e-014
lhumerus 14.8231 -33.4399 76.968
lradius 57.3815
lwrist 34.9481
lhand -50.3901 -13.2694
lfingers 7.12502
lthumb -22.9635 15.3829
rfemur -12.2974 17.2932 29.8257
rtibia 9.46235
rfoot -11.3454 -18.1358
rtoes 0.992286
lfemur -0.357812 -44.1117 -2.69297
ltibia -3.89495
lfoot -24.454 53.0715
ltoes 9.37318
704
root 0.0182917 17.5374 9.29427 12.6738 0.0504026 -11.6821
lowerback 5.85545 1.6836 7.46447
upperback -6.24443 3.16269 1.16729
thorax -9.64936 1.06147 -3.36663
lowerneck -18.6947 -3.37974 -0.300192
upperneck 23.4345 -6.88137 8.05172
head 11.0099 -2.1629 1.93273
rclavicle -1.14301e-015 -1.11319e-014
rhumerus 52.8048 36.7847 -28.8982
rradius 71.3694
rwrist 4.85403
rhand 39.3855 -67.6189
rfingers 7.12502
rthumb 61.8838 -439.257
lclavicle -1.14301e-015 -1.11319e-014
lhumerus 14.6335 -33.4562 77.0659
lradius 57.3982
lwrist 34.6547
lhand -50.3795 -13.3198
lfingers 7.12502
lthumb -22.9533 15.3337
rfemur -12.2136 17.1735 29.9417
rtibia 9.29434
rfoot -11.3615 -18.4827
rtoes 1.24722
lfemur -0.747133 -43.9776 -2.26588
ltibia -3.84493
lfoot -23.6838 52.6591
ltoes 8.76023
705
root 0.018542 17.5389 9.29911 12.6479 0.683862 -11.8155
lowerback 5.93068 1.46385 7.59227
upperback -6.30246 2.90441 1.31258
thorax -9.79262 0.925655 -3.25247
lowerneck -18.7197 -3.37064 -0.243485
upperneck 23.6154 -6.83868 7.81605
head 11.0665 -2.16052 1.84598
rclavicle -8.84592e-015 -3.26007e-014
rhumerus 51.4453 36.2659 -29.9385
rradius 73.6002
rwrist 5.20345
rhand 39.4945 -67.8346
rfingers 7.12502
rthumb 61.9749 -439.36
lclavicle -8.84592e-015 -3.26007e-014
lhumerus 14.4528 -33.4287 77.2047
lradius 57.356
lwrist 34.5228
lhand -50.4117 -13.6528
lfingers 7.12502
lthumb -22.9842 14.997
rfemur -12.1245 17.0355 30.1288
rtibia 9.13461
rfoot -11.4287 -18.9266
rtoes 1.38936
lfemur -1.2666 -43.6397 -1.65011
ltibia -3.80179
lfoot -22.5197 51.998
ltoes 7.70349
706
root 0.018598 17.5395 9.30858 12.5471 1.26557 -11.866
lowerback 5.97032 1.26725 7.61413
upperback -6.31244 2.65906 1.45055
thorax -9.8615 0.807842 -3.08564
lowerneck -18.6399 -3.41866 -0.370005
upperneck 23.6315 -6.84246 7.72665
head 11.0563 -2.18665 1.83511
rclavicle 2.87741e-014 2.14687e-014
rhumerus 50.2104 35.6556 -30.9655
rradius 75.4954
rwrist 5.79118
rhand 40.3912 -68.3787
rfingers 7.12502
rthumb 62.7186 -438.948
lclavicle 2.87741e-014 2.14687e-014
lhumerus 14.3317 -33.3161 77.4476
lradius 57.2225
lwrist 34.4715
lhand -50.392 -13.6095
lfingers 7.12502
lthumb -22.9653 15.0426
rfemur -11.9207 16.9375 30.2438
rtibia 8.95468
rfoot -11.5138 -19.3725
rtoes 1.31942
lfemur -1.58082 -43.3999 -1.30504
ltibia -3.75783
lfoot -21.6272 51.408
ltoes 6.95544
707
root 0.0153882 17.5432 9.32196 12.5456 1.65194 -11.5312
lowerback 5.86673 1.1322 7.15559
upperback -6.3334 2.42266 1.48221
thorax -9.86005 0.727327 -2.76183
lowerneck -18.6331 -3.46176 -0.41191
upperneck 23.7291 -6.85786 7.57585
head 11.0859 -2.21314 1.78602
rclavicle 1.07095e-014 -1.19271e-014
rhumerus 49.0913 35.0507 -32.0674
rradius 76.9373
rwrist 6.27809
rhand 41.229 -69.1224
rfingers 7.12502
rthumb 63.4058 -438.748
lclavicle 1.07095e-014 -1.19271e-014
lhumerus 14.2305 -33.1231 77.7369
lradius 57.0543
lwrist 34.5035
lhand -50.3688 -13.5126
lfingers 7.12502
lthumb -22.943 15.1422
rfemur -11.8465 17.0142 29.8625
rtibia 8.84362
rfoot -11.6464 -19.8484
rtoes 1.67581
lfemur -1.86155 -43.5399 -1.47894
ltibia -3.65619
lfoot -21.2909 51.1547
ltoes 6.85701
708
root 0.00888197 17.5499 9.33571 12.7106 1.82248 -10.8747
lowerback 5.59177 1.06129 6.29826
upperback -6.38988 2.20925 1.40075
thorax -9.79311 0.683572 -2.3358
lowerneck -18.6679 -3.48198 -0.462691
upperneck 23.8629 -6.86486 7.50587
head 11.1413 -2.22423 1.76899
rclavicle 8.39865e-015 -2.94201e-014
rhumerus 48.0578 34.5045 -33.3208
rradius 77.952
rwrist 6.55544
rhand 41.9016 -69.8419
rfingers 7.12502
rthumb 63.9516 -438.673
lclavicle 8.39865e-015 -2.94201e-014
lhumerus 14.1191 -32.9012 77.9757
lradius 56.9353
lwrist 34.6409
lhand -50.5414 -13.7492
lfingers 7.12502
lthumb -23.1087 14.885
rfemur -12.0353 17.2028 29.0286
rtibia 8.87182
rfoot -11.7935 -20.2844
rtoes 2.32835
lfemur -2.2284 -43.9802 -1.98462
ltibia -3.53504
lfoot -21.4882 51.276
ltoes 7.1211
709
root 0.00662441 17.5535 9.34523 12.7874 1.90297 -10.5352
lowerback 5.43072 1.01651 5.84424
upperback -6.42562 2.08832 1.36567
thorax -9.75431 0.656737 -2.10031
lowerneck -18.6507 -3.45768 -0.479606
upperneck 23.9554 -6.8355 7.51307
head 11.1721 -2.20888 1.78024
rclavicle -1.25234e-014 -1.19271e-014
rhumerus 47.2387 34.1063 -34.5227
rradius 78.4614
rwrist 6.67648
rhand 42.0361 -70.1881
rfingers 7.12502
rthumb 64.06 -438.856
lclavicle -1.25234e-014 -1.19271e-014
lhumerus 14.0113 -32.6772 78.1734
lradius 56.8624
lwrist 34.7793
lhand -50.846 -13.8608
lfingers 7.12502
lthumb -23.4009 14.7365
rfemur -12.1541 17.2584 28.599
rtibia 8.95928
rfoot -11.8826 -20.4743
rtoes 2.44817
lfemur -2.35638 -44.2374 -2.29241
ltibia -3.50138
lfoot -21.5209 51.429
ltoes 7.0021
